# xmcd CD database file
#
# Track frame offsets:
#	150
#	38202
#	62179
#	81506
#	122108
#	139510
#	154937
#	194664
#	213216
#	235668
#	265595
#	284947
#	297799
#
# Disc length: 4169 seconds
#
# Revision: 0
# Processed by: cddbd v1.5.2PL0 Copyright (c) Steve Scherf et al.
# Submitted via: CDex 1.51
#
DISCID=ca10470d
DTITLE=Various Artist - Diggin' Deeper - the roots of acid jazz
DYEAR=1996
DGENRE=Jazz
TTITLE0=01 Ray Barretto - pastime paradise
TTITLE1=02 Billy Paul - am I black enough for you 
TTITLE2=03 Mongo Santamaria - cloud nine
TTITLE3=04 Deodato - also sprach zarathrustra
TTITLE4=05 Bill Withers - kissing my love
TTITLE5=06 Esther Phillips - home is where the hatred is
TTITLE6=07 George Benson - so what?
TTITLE7=08 Asha Puthli - right down here
TTITLE8=09 Ramsey Lewis - love for a day
TTITLE9=10 Cedar Walton - latin america
TTITLE10=11 Lonnie Liston Smith - in the park
TTITLE11=12 Os Ipanemas - consolacao
TTITLE12=13 Rodney Franklin - on the path
EXTD=YEAR: 1996
EXTT0=
EXTT1=
EXTT2=
EXTT3=
EXTT4=
EXTT5=
EXTT6=
EXTT7=
EXTT8=
EXTT9=
EXTT10=
EXTT11=
EXTT12=
PLAYORDER=
